<?xml version="1.0" encoding="UTF-8"?>
<svg id="Layer_1" data-name="Layer 1" xmlns="http://www.w3.org/2000/svg" xmlns:xlink="http://www.w3.org/1999/xlink" viewBox="0 0 1125.5 2436">
  <image width="1563" height="1563" transform="translate(220.5 181) scale(.44)" xlink:href="D:\react_native\billbuster-main\assets\bb_big.jpg"/>
  <path d="m833.02,419.5c9.39,24.93,15.43,51.49,17.59,79.14.59,7.54.89,15.16.89,22.86,0,159.89-129.61,289.5-289.5,289.5s-289.5-129.61-289.5-289.5c0-11.39.66-22.63,1.94-33.67,2.75-23.77,8.38-46.67,16.54-68.33H0v1580h1125V419.5h-291.98Z" style="fill: #27222a;"/>
  <path d="m.5,421c.17.05.33.11.5.16,78.87,25.35,170.82,49.65,274.44,67.67,2.75-23.77,8.38-46.67,16.54-68.33,41.25-109.56,147.03-187.5,271.02-187.5s229.77,77.94,271.02,187.5c9.39,24.93,15.43,51.49,17.59,79.14,104.11-19.36,193.97-48.82,267.85-79.14,2.03-.84,4.04-1.67,6.04-2.5V0H.5v421Z" style="fill: #e71e70;"/>
  <rect x="1.5" y="1999" width="1124" height="437" style="fill: #27222a;"/>
  <circle cx="561.75" cy="512.75" r="297.25" style="fill: none; stroke: #fff; stroke-miterlimit: 10; stroke-width: 16px;"/>
</svg>